<svg width="42" height="43" viewBox="0 0 42 43" fill="none" xmlns="http://www.w3.org/2000/svg">
<path d="M21.3561 38.3297C30.7652 38.3297 38.3908 30.7029 38.3908 21.295C38.3908 11.8871 30.7652 4.26019 21.3561 4.26019C11.9482 4.26019 4.32129 11.8871 4.32129 21.295C4.32129 30.7029 11.9482 38.3297 21.3561 38.3297ZM21.3561 5.62292C29.9975 5.62292 37.0281 12.6535 37.0281 21.295C37.0281 29.9364 29.9975 36.967 21.3561 36.967C12.7133 36.967 5.68402 29.9364 5.68402 21.295C5.68402 12.6535 12.7133 5.62292 21.3561 5.62292Z" fill="white"/>
<path d="M22.39 28.6179L23.3539 29.5818L31.6394 21.295L23.3539 13.0082L22.39 13.9721L29.0309 20.613H12.4976V21.9757H29.0309L22.39 28.6179Z" fill="white"/>
</svg>
